<?xml version="1.0" standalone="no"?>
<!DOCTYPE svg PUBLIC "-//W3C//DTD SVG 20010904//EN"
 "http://www.w3.org/TR/2001/REC-SVG-20010904/DTD/svg10.dtd">
<svg version="1.0" xmlns="http://www.w3.org/2000/svg"
 width="179.000000pt" height="179.000000pt" viewBox="0 0 179.000000 179.000000"
 preserveAspectRatio="xMidYMid meet">
<metadata>
Created by potrace 1.11, written by Peter Selinger 2001-2013
</metadata>
<g transform="translate(0.000000,179.000000) scale(0.100000,-0.100000)"
fill="#000000" stroke="none">
<path d="M1195 1778 c-186 -27 -354 -180 -405 -367 -6 -25 -38 -90 -70 -145
-205 -355 -711 -1249 -708 -1251 2 -2 98 50 213 117 116 66 233 132 260 147
28 16 223 127 435 248 525 300 500 289 506 235 11 -92 76 -131 153 -90 50 27
70 125 41 202 -6 16 1 31 29 66 63 77 79 104 105 181 22 64 25 88 22 174 -4
118 -21 173 -83 267 -91 138 -222 214 -384 221 -35 2 -86 0 -114 -5z m200 -63
c114 -30 203 -99 269 -209 41 -67 38 -77 -26 -95 -114 -32 -140 -63 -139 -164
0 -57 2 -78 16 -169 5 -34 32 -144 58 -235 22 -76 1 -133 -48 -133 -31 0 -48
24 -48 68 1 20 2 93 3 162 4 172 -6 239 -40 293 -35 56 -88 83 -132 68 -56
-20 -84 -13 -133 29 -25 22 -52 40 -59 40 -7 0 -45 -11 -84 -25 -84 -29 -114
-31 -153 -8 -39 23 -43 42 -21 99 85 220 311 337 537 279z m327 -347 c9 -26 8
-125 -1 -175 -14 -70 -46 -138 -89 -191 -42 -52 -42 -53 -66 88 -21 125 -21
202 2 229 9 12 44 30 77 40 75 24 72 23 77 9z m-415 -560 c-232 -134 -1153
-655 -1155 -653 -2 1 6 18 17 36 10 19 148 261 306 539 158 278 298 525 312
549 l25 44 254 -254 c166 -166 249 -256 241 -261z m-157 477 c33 -40 125 -59
170 -35 22 12 63 -17 85 -61 19 -35 31 -156 27 -261 -3 -76 -3 -77 -32 -83
-27 -6 -42 7 -240 205 -117 116 -210 212 -208 213 1 1 37 14 78 28 76 26 94
26 120 -6z"/>
<path d="M1499 599 c-60 -22 -77 -132 -29 -184 61 -65 170 -4 170 95 0 42 -15
67 -50 85 -33 17 -53 18 -91 4z m83 -63 c11 -17 10 -34 -7 -66 -28 -55 -85
-32 -85 34 0 46 68 69 92 32z"/>
</g>
</svg>
